<svg width="1001" height="499" viewBox="0 0 1001 499" fill="none" xmlns="http://www.w3.org/2000/svg">
<g opacity="0.29827">
<path d="M1008.08 163.448L443.182 -356.858V-747.19L28.1096 -770C24.9043 -762.456 4.36709 -740.714 7.57176 -728.596C11.43 -714.102 30.8387 -718.735 36.4776 -709.409C43.0661 -698.42 31.7291 -653.749 28.3457 -640.86C21.8759 -616.445 7.09676 -596.665 2.82235 -572.25C-4.35982 -531.263 10.1824 -534.53 37.7242 -508.927C84.141 -465.742 46.9244 -420.952 58.6176 -370.223C68.1146 -328.878 109.605 -307.554 124.8 -266.211C136.553 -234.37 152.697 -226.233 177.746 -202.947C177.153 -217.084 164.51 -258.785 188.253 -255.102C211.817 -251.478 202.736 -216.669 207.247 -202.115C211.045 -189.997 237.933 -165.761 215.616 -154.593C208.196 -150.91 187.066 -165.582 178.577 -169.503C184.572 -150.791 180.774 -131.367 190.271 -113.487C201.608 -92.162 213.835 -100.359 228.853 -88.7754C244.344 -76.8355 242.683 -63.1137 235.797 -45.0554C228.615 -26.2247 221.196 -29.1352 232.592 -6.44342C240.843 9.95119 254.85 30.7421 266.9 43.2164C273.904 50.4634 281.502 52.1267 288.506 61.3932C294.323 69.1155 292.067 79.2142 299.012 86.1638C310.883 98.1037 331.006 98.282 340.384 113.904C350.831 131.309 338.96 144.437 369.706 142.833C371.309 177.643 377.897 209.185 377.541 243.994C394.695 250.825 422.414 242.687 440.399 239.063C458.266 263.18 481.355 246.429 501.774 259.558C510.678 265.26 508.837 279.517 514.239 284.506C525.339 294.723 533.529 288.308 547.301 291.872C557.51 294.486 565.404 301.97 575.138 304.703C584.338 307.257 599.475 301.258 606.301 309.396C614.492 319.138 600.78 336.958 613.127 344.799C623.395 351.333 638.115 335.77 648.088 338.027C659.721 340.7 693.079 371.174 701.271 381.212C710.59 392.677 719.969 414.062 725.25 428.793C733.501 451.841 732.373 463.127 749.408 479.998C760.27 490.75 749.942 491.522 767.63 494.67C779.204 496.749 794.518 488.374 806.212 487.067C830.549 484.394 855.122 489.027 879.102 484.453C901.421 480.176 922.729 473.166 945.64 469.899C965.465 467.048 1000.37 469.246 1017.94 459.801C1036.99 449.643 1038.71 426.654 1011.17 430.932C1008.97 416.26 1018.77 396.003 1007.85 385.847C1023.04 365.056 1028.56 350.384 1030.93 324.959C1032 313.792 1032.48 301.436 1038 292.05C1043.4 282.783 1058.59 277.259 1061.56 269.299C1066.13 256.943 1058.83 251.419 1053.25 244.528C1049.69 240.073 1039.54 242.212 1036.63 238.291C1031.23 231.103 1036.57 223.678 1033.6 216.431C1024.94 195.462 1014.61 187.205 1008.08 163.444C1008.26 167.424 1008.44 171.463 1008.2 175.384" stroke="white" stroke-width="2" stroke-linecap="round" stroke-linejoin="round"/>
</g>
<path d="M578.414 483.784C579.15 483.784 579.779 483.891 580.302 484.104C580.824 484.307 581.331 484.627 581.822 485.064L580.99 485.992C580.574 485.661 580.163 485.421 579.758 485.272C579.363 485.112 578.936 485.032 578.478 485.032C577.902 485.032 577.427 485.165 577.054 485.432C576.68 485.699 576.494 486.088 576.494 486.6C576.494 486.92 576.558 487.192 576.686 487.416C576.814 487.629 577.048 487.827 577.39 488.008C577.742 488.189 578.248 488.381 578.91 488.584C579.603 488.797 580.179 489.027 580.638 489.272C581.096 489.517 581.464 489.859 581.742 490.296C582.03 490.723 582.174 491.267 582.174 491.928C582.174 492.568 582.014 493.133 581.694 493.624C581.384 494.115 580.931 494.499 580.334 494.776C579.747 495.053 579.048 495.192 578.238 495.192C576.712 495.192 575.464 494.717 574.494 493.768L575.326 492.84C575.774 493.203 576.227 493.48 576.686 493.672C577.144 493.853 577.656 493.944 578.222 493.944C578.904 493.944 579.47 493.779 579.918 493.448C580.366 493.107 580.59 492.616 580.59 491.976C580.59 491.613 580.52 491.315 580.382 491.08C580.243 490.835 580.003 490.616 579.662 490.424C579.331 490.232 578.846 490.04 578.206 489.848C577.075 489.507 576.248 489.096 575.726 488.616C575.203 488.136 574.942 487.485 574.942 486.664C574.942 486.109 575.086 485.613 575.374 485.176C575.672 484.739 576.083 484.397 576.606 484.152C577.139 483.907 577.742 483.784 578.414 483.784ZM587.501 486.376C588.685 486.376 589.602 486.771 590.253 487.56C590.914 488.349 591.245 489.421 591.245 490.776C591.245 491.651 591.095 492.424 590.797 493.096C590.498 493.757 590.066 494.275 589.501 494.648C588.935 495.011 588.263 495.192 587.485 495.192C586.301 495.192 585.378 494.797 584.717 494.008C584.055 493.219 583.725 492.147 583.725 490.792C583.725 489.917 583.874 489.149 584.173 488.488C584.471 487.816 584.903 487.299 585.469 486.936C586.034 486.563 586.711 486.376 587.501 486.376ZM587.501 487.56C586.039 487.56 585.309 488.637 585.309 490.792C585.309 492.936 586.034 494.008 587.485 494.008C588.935 494.008 589.661 492.931 589.661 490.776C589.661 488.632 588.941 487.56 587.501 487.56ZM599.948 495H598.684L598.572 493.688C598.252 494.211 597.884 494.595 597.468 494.84C597.052 495.075 596.546 495.192 595.948 495.192C595.212 495.192 594.636 494.968 594.22 494.52C593.804 494.072 593.596 493.437 593.596 492.616V486.568H595.068V492.456C595.068 493.032 595.17 493.443 595.372 493.688C595.575 493.923 595.906 494.04 596.364 494.04C597.186 494.04 597.89 493.555 598.476 492.584V486.568H599.948V495ZM607.245 494.616C606.69 495 606.061 495.192 605.357 495.192C604.642 495.192 604.082 494.989 603.677 494.584C603.282 494.168 603.085 493.571 603.085 492.792V487.704H601.613V486.568H603.085V484.664L604.557 484.488V486.568H606.557L606.397 487.704H604.557V492.728C604.557 493.165 604.631 493.485 604.781 493.688C604.941 493.88 605.202 493.976 605.565 493.976C605.895 493.976 606.269 493.864 606.685 493.64L607.245 494.616ZM612.738 486.376C613.506 486.376 614.103 486.605 614.53 487.064C614.967 487.523 615.186 488.152 615.186 488.952V495H613.714V489.16C613.714 488.563 613.597 488.141 613.362 487.896C613.138 487.651 612.807 487.528 612.37 487.528C611.933 487.528 611.543 487.656 611.202 487.912C610.861 488.168 610.541 488.531 610.242 489V495H608.77V483.192L610.242 483.032V487.736C610.903 486.829 611.735 486.376 612.738 486.376ZM625.179 483.784C625.915 483.784 626.545 483.891 627.067 484.104C627.59 484.307 628.097 484.627 628.587 485.064L627.755 485.992C627.339 485.661 626.929 485.421 626.523 485.272C626.129 485.112 625.702 485.032 625.243 485.032C624.667 485.032 624.193 485.165 623.819 485.432C623.446 485.699 623.259 486.088 623.259 486.6C623.259 486.92 623.323 487.192 623.451 487.416C623.579 487.629 623.814 487.827 624.155 488.008C624.507 488.189 625.014 488.381 625.675 488.584C626.369 488.797 626.945 489.027 627.403 489.272C627.862 489.517 628.23 489.859 628.507 490.296C628.795 490.723 628.939 491.267 628.939 491.928C628.939 492.568 628.779 493.133 628.459 493.624C628.15 494.115 627.697 494.499 627.099 494.776C626.513 495.053 625.814 495.192 625.003 495.192C623.478 495.192 622.23 494.717 621.259 493.768L622.091 492.84C622.539 493.203 622.993 493.48 623.451 493.672C623.91 493.853 624.422 493.944 624.987 493.944C625.67 493.944 626.235 493.779 626.683 493.448C627.131 493.107 627.355 492.616 627.355 491.976C627.355 491.613 627.286 491.315 627.147 491.08C627.009 490.835 626.769 490.616 626.427 490.424C626.097 490.232 625.611 490.04 624.971 489.848C623.841 489.507 623.014 489.096 622.491 488.616C621.969 488.136 621.707 487.485 621.707 486.664C621.707 486.109 621.851 485.613 622.139 485.176C622.438 484.739 622.849 484.397 623.371 484.152C623.905 483.907 624.507 483.784 625.179 483.784ZM635.066 486.376C635.834 486.376 636.431 486.605 636.858 487.064C637.295 487.523 637.514 488.152 637.514 488.952V495H636.042V489.16C636.042 488.563 635.925 488.141 635.69 487.896C635.466 487.651 635.135 487.528 634.698 487.528C634.261 487.528 633.871 487.656 633.53 487.912C633.189 488.168 632.869 488.531 632.57 489V495H631.098V483.192L632.57 483.032V487.736C633.231 486.829 634.063 486.376 635.066 486.376ZM643.641 486.376C644.825 486.376 645.742 486.771 646.393 487.56C647.054 488.349 647.385 489.421 647.385 490.776C647.385 491.651 647.236 492.424 646.937 493.096C646.638 493.757 646.206 494.275 645.641 494.648C645.076 495.011 644.404 495.192 643.625 495.192C642.441 495.192 641.518 494.797 640.857 494.008C640.196 493.219 639.865 492.147 639.865 490.792C639.865 489.917 640.014 489.149 640.313 488.488C640.612 487.816 641.044 487.299 641.609 486.936C642.174 486.563 642.852 486.376 643.641 486.376ZM643.641 487.56C642.18 487.56 641.449 488.637 641.449 490.792C641.449 492.936 642.174 494.008 643.625 494.008C645.076 494.008 645.801 492.931 645.801 490.776C645.801 488.632 645.081 487.56 643.641 487.56ZM653.481 486.376C653.78 486.376 654.057 486.408 654.313 486.472L654.041 487.912C653.785 487.848 653.54 487.816 653.305 487.816C652.782 487.816 652.361 488.008 652.041 488.392C651.721 488.776 651.47 489.373 651.289 490.184V495H649.817V486.568H651.081L651.225 488.28C651.449 487.651 651.753 487.176 652.137 486.856C652.521 486.536 652.969 486.376 653.481 486.376ZM661.872 490.536C661.872 490.781 661.862 491.032 661.84 491.288H656.464C656.528 492.216 656.763 492.899 657.168 493.336C657.574 493.773 658.096 493.992 658.736 493.992C659.142 493.992 659.515 493.933 659.856 493.816C660.198 493.699 660.555 493.512 660.928 493.256L661.568 494.136C660.672 494.84 659.691 495.192 658.624 495.192C657.451 495.192 656.534 494.808 655.872 494.04C655.222 493.272 654.896 492.216 654.896 490.872C654.896 489.997 655.035 489.224 655.312 488.552C655.6 487.869 656.006 487.336 656.528 486.952C657.062 486.568 657.686 486.376 658.4 486.376C659.52 486.376 660.379 486.744 660.976 487.48C661.574 488.216 661.872 489.235 661.872 490.536ZM660.416 490.104C660.416 489.272 660.251 488.637 659.92 488.2C659.59 487.763 659.094 487.544 658.432 487.544C657.227 487.544 656.571 488.429 656.464 490.2H660.416V490.104ZM670.41 482.184V496.568H670.058V482.184H670.41ZM689.237 495H687.765L687.381 490.024C687.221 488.072 687.131 486.573 687.109 485.528L684.725 493.752H683.301L680.789 485.512C680.789 486.845 680.72 488.387 680.581 490.136L680.213 495H678.773L679.685 483.976H681.733L684.053 491.992L686.261 483.976H688.325L689.237 495ZM697.434 493.032C697.434 493.373 697.493 493.629 697.61 493.8C697.728 493.96 697.904 494.083 698.138 494.168L697.802 495.192C697.365 495.139 697.013 495.016 696.746 494.824C696.48 494.632 696.282 494.333 696.154 493.928C695.589 494.771 694.752 495.192 693.642 495.192C692.81 495.192 692.154 494.957 691.674 494.488C691.194 494.019 690.954 493.405 690.954 492.648C690.954 491.752 691.274 491.064 691.914 490.584C692.565 490.104 693.482 489.864 694.666 489.864H695.962V489.24C695.962 488.643 695.818 488.216 695.53 487.96C695.242 487.704 694.8 487.576 694.202 487.576C693.584 487.576 692.826 487.725 691.93 488.024L691.562 486.952C692.608 486.568 693.578 486.376 694.474 486.376C695.466 486.376 696.208 486.621 696.698 487.112C697.189 487.592 697.434 488.28 697.434 489.176V493.032ZM693.978 494.088C694.821 494.088 695.482 493.651 695.962 492.776V490.84H694.858C693.301 490.84 692.522 491.416 692.522 492.568C692.522 493.069 692.645 493.448 692.89 493.704C693.136 493.96 693.498 494.088 693.978 494.088ZM701.981 495.192C701.437 495.192 701.005 495.032 700.685 494.712C700.376 494.381 700.221 493.923 700.221 493.336V483.176L701.693 483V493.304C701.693 493.539 701.731 493.709 701.805 493.816C701.891 493.923 702.029 493.976 702.221 493.976C702.424 493.976 702.605 493.944 702.765 493.88L703.149 494.904C702.797 495.096 702.408 495.192 701.981 495.192ZM706.461 486.568V495H704.989V486.568H706.461ZM705.709 482.52C706.018 482.52 706.269 482.616 706.461 482.808C706.653 483 706.749 483.24 706.749 483.528C706.749 483.816 706.653 484.056 706.461 484.248C706.269 484.429 706.018 484.52 705.709 484.52C705.41 484.52 705.165 484.429 704.973 484.248C704.781 484.056 704.685 483.816 704.685 483.528C704.685 483.24 704.781 483 704.973 482.808C705.165 482.616 705.41 482.52 705.709 482.52ZM713.36 486.376C714.32 486.376 715.083 486.765 715.648 487.544C716.214 488.312 716.496 489.389 716.496 490.776C716.496 491.651 716.363 492.424 716.096 493.096C715.83 493.757 715.446 494.275 714.944 494.648C714.443 495.011 713.856 495.192 713.184 495.192C712.299 495.192 711.552 494.819 710.944 494.072L710.8 495H709.504V483.176L710.976 483V487.624C711.584 486.792 712.379 486.376 713.36 486.376ZM712.832 494.024C713.483 494.024 713.99 493.763 714.352 493.24C714.726 492.707 714.912 491.885 714.912 490.776C714.912 489.635 714.742 488.813 714.4 488.312C714.059 487.8 713.574 487.544 712.944 487.544C712.198 487.544 711.542 487.981 710.976 488.856V492.888C711.2 493.24 711.472 493.517 711.792 493.72C712.123 493.923 712.47 494.024 712.832 494.024ZM725.276 495H724.012L723.9 493.688C723.58 494.211 723.212 494.595 722.796 494.84C722.38 495.075 721.874 495.192 721.276 495.192C720.54 495.192 719.964 494.968 719.548 494.52C719.132 494.072 718.924 493.437 718.924 492.616V486.568H720.396V492.456C720.396 493.032 720.498 493.443 720.7 493.688C720.903 493.923 721.234 494.04 721.692 494.04C722.514 494.04 723.218 493.555 723.804 492.584V486.568H725.276V495ZM728.701 492.968C729.021 492.968 729.288 493.075 729.501 493.288C729.714 493.501 729.821 493.763 729.821 494.072C729.821 494.403 729.725 494.781 729.533 495.208L728.461 497.656H727.405L728.045 495C727.906 494.893 727.794 494.76 727.709 494.6C727.634 494.44 727.597 494.264 727.597 494.072C727.597 493.763 727.704 493.501 727.917 493.288C728.13 493.075 728.392 492.968 728.701 492.968ZM740.331 483.784C740.992 483.784 741.547 483.869 741.995 484.04C742.454 484.211 742.918 484.488 743.387 484.872L742.555 485.848C741.883 485.304 741.174 485.032 740.427 485.032C739.51 485.032 738.768 485.384 738.203 486.088C737.648 486.792 737.371 487.923 737.371 489.48C737.371 490.995 737.648 492.115 738.203 492.84C738.758 493.555 739.494 493.912 740.411 493.912C740.88 493.912 741.291 493.832 741.643 493.672C741.995 493.512 742.368 493.288 742.763 493L743.515 493.96C743.174 494.312 742.736 494.605 742.203 494.84C741.67 495.075 741.056 495.192 740.363 495.192C739.467 495.192 738.667 494.973 737.963 494.536C737.27 494.088 736.726 493.437 736.331 492.584C735.947 491.72 735.755 490.685 735.755 489.48C735.755 488.275 735.958 487.245 736.363 486.392C736.768 485.528 737.318 484.877 738.011 484.44C738.704 484.003 739.478 483.784 740.331 483.784ZM751.3 495L750.468 492.232H746.292L745.46 495H743.924L747.46 483.976H749.38L752.9 495H751.3ZM746.66 491H750.1L748.388 485.24L746.66 491Z" fill="white"/>
<path fill-rule="evenodd" clip-rule="evenodd" d="M724.5 474C728.09 474 731 471.09 731 467.5C731 463.91 728.09 461 724.5 461C720.91 461 718 463.91 718 467.5C718 471.09 720.91 474 724.5 474Z" fill="#4AF6CD"/>
<path fill-rule="evenodd" clip-rule="evenodd" d="M725 471C726.657 471 728 469.657 728 468C728 466.343 726.657 465 725 465C723.343 465 722 466.343 722 468C722 469.657 723.343 471 725 471Z" fill="#4AF6CD"/>
<path d="M726.924 83C735.448 114.238 763.717 106.589 793.018 109.536C801.7 110.409 807.928 117.826 805.907 126.575C801.56 145.388 745.973 163.6 758.637 174.857C771.718 186.485 823.746 177.922 826.422 177.985C849.921 178.545 876.432 204.341 880.047 226.522C882.619 242.305 840.873 267.081 825.826 272.272C727.287 306.269 806.231 220.509 710.5 279.017C703.172 283.496 732.13 302.726 726.924 309.517C721.562 316.511 760.987 338.476 766.5 341.174C784.77 350.114 726.549 383.682 731.47 409.492C732.98 417.411 729.138 425.944 730.443 433.909C731.465 440.147 724.314 460.816 726.924 466.517" stroke="white" stroke-width="2"/>
<path d="M528.41 380.976L526.17 392H524.218L522.186 382.768L520.138 392H518.234L515.994 380.976H517.482L519.258 390.672L521.386 380.976H523.002L525.178 390.672L527.018 380.976H528.41ZM536.544 387.536C536.544 387.781 536.534 388.032 536.512 388.288H531.136C531.2 389.216 531.435 389.899 531.84 390.336C532.246 390.773 532.768 390.992 533.408 390.992C533.814 390.992 534.187 390.933 534.528 390.816C534.87 390.699 535.227 390.512 535.6 390.256L536.24 391.136C535.344 391.84 534.363 392.192 533.296 392.192C532.123 392.192 531.206 391.808 530.544 391.04C529.894 390.272 529.568 389.216 529.568 387.872C529.568 386.997 529.707 386.224 529.984 385.552C530.272 384.869 530.678 384.336 531.2 383.952C531.734 383.568 532.358 383.376 533.072 383.376C534.192 383.376 535.051 383.744 535.648 384.48C536.246 385.216 536.544 386.235 536.544 387.536ZM535.088 387.104C535.088 386.272 534.923 385.637 534.592 385.2C534.262 384.763 533.766 384.544 533.104 384.544C531.899 384.544 531.243 385.429 531.136 387.2H535.088V387.104ZM541.183 383.376C541.759 383.376 542.276 383.456 542.735 383.616C543.194 383.776 543.631 384.016 544.047 384.336L543.423 385.264C543.039 385.019 542.671 384.837 542.319 384.72C541.978 384.603 541.615 384.544 541.231 384.544C540.751 384.544 540.372 384.645 540.095 384.848C539.818 385.04 539.679 385.307 539.679 385.648C539.679 385.989 539.807 386.256 540.063 386.448C540.33 386.64 540.804 386.827 541.487 387.008C542.426 387.243 543.124 387.563 543.583 387.968C544.052 388.373 544.287 388.928 544.287 389.632C544.287 390.464 543.962 391.099 543.311 391.536C542.671 391.973 541.887 392.192 540.959 392.192C539.679 392.192 538.618 391.824 537.775 391.088L538.559 390.192C539.274 390.736 540.063 391.008 540.927 391.008C541.482 391.008 541.919 390.896 542.239 390.672C542.57 390.437 542.735 390.123 542.735 389.728C542.735 389.44 542.676 389.211 542.559 389.04C542.442 388.859 542.239 388.704 541.951 388.576C541.663 388.437 541.242 388.293 540.687 388.144C539.791 387.909 539.14 387.595 538.735 387.2C538.34 386.805 538.143 386.304 538.143 385.696C538.143 385.259 538.271 384.864 538.527 384.512C538.794 384.149 539.156 383.872 539.615 383.68C540.084 383.477 540.607 383.376 541.183 383.376ZM550.62 391.616C550.065 392 549.436 392.192 548.732 392.192C548.017 392.192 547.457 391.989 547.052 391.584C546.657 391.168 546.46 390.571 546.46 389.792V384.704H544.988V383.568H546.46V381.664L547.932 381.488V383.568H549.932L549.772 384.704H547.932V389.728C547.932 390.165 548.006 390.485 548.156 390.688C548.316 390.88 548.577 390.976 548.94 390.976C549.27 390.976 549.644 390.864 550.06 390.64L550.62 391.616ZM559.179 380.784C559.915 380.784 560.545 380.891 561.067 381.104C561.59 381.307 562.097 381.627 562.587 382.064L561.755 382.992C561.339 382.661 560.929 382.421 560.523 382.272C560.129 382.112 559.702 382.032 559.243 382.032C558.667 382.032 558.193 382.165 557.819 382.432C557.446 382.699 557.259 383.088 557.259 383.6C557.259 383.92 557.323 384.192 557.451 384.416C557.579 384.629 557.814 384.827 558.155 385.008C558.507 385.189 559.014 385.381 559.675 385.584C560.369 385.797 560.945 386.027 561.403 386.272C561.862 386.517 562.23 386.859 562.507 387.296C562.795 387.723 562.939 388.267 562.939 388.928C562.939 389.568 562.779 390.133 562.459 390.624C562.15 391.115 561.697 391.499 561.099 391.776C560.513 392.053 559.814 392.192 559.003 392.192C557.478 392.192 556.23 391.717 555.259 390.768L556.091 389.84C556.539 390.203 556.993 390.48 557.451 390.672C557.91 390.853 558.422 390.944 558.987 390.944C559.67 390.944 560.235 390.779 560.683 390.448C561.131 390.107 561.355 389.616 561.355 388.976C561.355 388.613 561.286 388.315 561.147 388.08C561.009 387.835 560.769 387.616 560.427 387.424C560.097 387.232 559.611 387.04 558.971 386.848C557.841 386.507 557.014 386.096 556.491 385.616C555.969 385.136 555.707 384.485 555.707 383.664C555.707 383.109 555.851 382.613 556.139 382.176C556.438 381.739 556.849 381.397 557.371 381.152C557.905 380.907 558.507 380.784 559.179 380.784ZM569.066 383.376C569.834 383.376 570.431 383.605 570.858 384.064C571.295 384.523 571.514 385.152 571.514 385.952V392H570.042V386.16C570.042 385.563 569.925 385.141 569.69 384.896C569.466 384.651 569.135 384.528 568.698 384.528C568.261 384.528 567.871 384.656 567.53 384.912C567.189 385.168 566.869 385.531 566.57 386V392H565.098V380.192L566.57 380.032V384.736C567.231 383.829 568.063 383.376 569.066 383.376ZM577.641 383.376C578.825 383.376 579.742 383.771 580.393 384.56C581.054 385.349 581.385 386.421 581.385 387.776C581.385 388.651 581.236 389.424 580.937 390.096C580.638 390.757 580.206 391.275 579.641 391.648C579.076 392.011 578.404 392.192 577.625 392.192C576.441 392.192 575.518 391.797 574.857 391.008C574.196 390.219 573.865 389.147 573.865 387.792C573.865 386.917 574.014 386.149 574.313 385.488C574.612 384.816 575.044 384.299 575.609 383.936C576.174 383.563 576.852 383.376 577.641 383.376ZM577.641 384.56C576.18 384.56 575.449 385.637 575.449 387.792C575.449 389.936 576.174 391.008 577.625 391.008C579.076 391.008 579.801 389.931 579.801 387.776C579.801 385.632 579.081 384.56 577.641 384.56ZM587.481 383.376C587.78 383.376 588.057 383.408 588.313 383.472L588.041 384.912C587.785 384.848 587.54 384.816 587.305 384.816C586.782 384.816 586.361 385.008 586.041 385.392C585.721 385.776 585.47 386.373 585.289 387.184V392H583.817V383.568H585.081L585.225 385.28C585.449 384.651 585.753 384.176 586.137 383.856C586.521 383.536 586.969 383.376 587.481 383.376ZM595.872 387.536C595.872 387.781 595.862 388.032 595.84 388.288H590.464C590.528 389.216 590.763 389.899 591.168 390.336C591.574 390.773 592.096 390.992 592.736 390.992C593.142 390.992 593.515 390.933 593.856 390.816C594.198 390.699 594.555 390.512 594.928 390.256L595.568 391.136C594.672 391.84 593.691 392.192 592.624 392.192C591.451 392.192 590.534 391.808 589.872 391.04C589.222 390.272 588.896 389.216 588.896 387.872C588.896 386.997 589.035 386.224 589.312 385.552C589.6 384.869 590.006 384.336 590.528 383.952C591.062 383.568 591.686 383.376 592.4 383.376C593.52 383.376 594.379 383.744 594.976 384.48C595.574 385.216 595.872 386.235 595.872 387.536ZM594.416 387.104C594.416 386.272 594.251 385.637 593.92 385.2C593.59 384.763 593.094 384.544 592.432 384.544C591.227 384.544 590.571 385.429 590.464 387.2H594.416V387.104ZM604.41 379.184V393.568H604.058V379.184H604.41ZM623.237 392H621.765L621.381 387.024C621.221 385.072 621.131 383.573 621.109 382.528L618.725 390.752H617.301L614.789 382.512C614.789 383.845 614.72 385.387 614.581 387.136L614.213 392H612.773L613.685 380.976H615.733L618.053 388.992L620.261 380.976H622.325L623.237 392ZM631.434 390.032C631.434 390.373 631.493 390.629 631.61 390.8C631.728 390.96 631.904 391.083 632.138 391.168L631.802 392.192C631.365 392.139 631.013 392.016 630.746 391.824C630.48 391.632 630.282 391.333 630.154 390.928C629.589 391.771 628.752 392.192 627.642 392.192C626.81 392.192 626.154 391.957 625.674 391.488C625.194 391.019 624.954 390.405 624.954 389.648C624.954 388.752 625.274 388.064 625.914 387.584C626.565 387.104 627.482 386.864 628.666 386.864H629.962V386.24C629.962 385.643 629.818 385.216 629.53 384.96C629.242 384.704 628.8 384.576 628.202 384.576C627.584 384.576 626.826 384.725 625.93 385.024L625.562 383.952C626.608 383.568 627.578 383.376 628.474 383.376C629.466 383.376 630.208 383.621 630.698 384.112C631.189 384.592 631.434 385.28 631.434 386.176V390.032ZM627.978 391.088C628.821 391.088 629.482 390.651 629.962 389.776V387.84H628.858C627.301 387.84 626.522 388.416 626.522 389.568C626.522 390.069 626.645 390.448 626.89 390.704C627.136 390.96 627.498 391.088 627.978 391.088ZM635.981 392.192C635.437 392.192 635.005 392.032 634.685 391.712C634.376 391.381 634.221 390.923 634.221 390.336V380.176L635.693 380V390.304C635.693 390.539 635.731 390.709 635.805 390.816C635.891 390.923 636.029 390.976 636.221 390.976C636.424 390.976 636.605 390.944 636.765 390.88L637.149 391.904C636.797 392.096 636.408 392.192 635.981 392.192ZM640.461 383.568V392H638.989V383.568H640.461ZM639.709 379.52C640.018 379.52 640.269 379.616 640.461 379.808C640.653 380 640.749 380.24 640.749 380.528C640.749 380.816 640.653 381.056 640.461 381.248C640.269 381.429 640.018 381.52 639.709 381.52C639.41 381.52 639.165 381.429 638.973 381.248C638.781 381.056 638.685 380.816 638.685 380.528C638.685 380.24 638.781 380 638.973 379.808C639.165 379.616 639.41 379.52 639.709 379.52ZM647.36 383.376C648.32 383.376 649.083 383.765 649.648 384.544C650.214 385.312 650.496 386.389 650.496 387.776C650.496 388.651 650.363 389.424 650.096 390.096C649.83 390.757 649.446 391.275 648.944 391.648C648.443 392.011 647.856 392.192 647.184 392.192C646.299 392.192 645.552 391.819 644.944 391.072L644.8 392H643.504V380.176L644.976 380V384.624C645.584 383.792 646.379 383.376 647.36 383.376ZM646.832 391.024C647.483 391.024 647.99 390.763 648.352 390.24C648.726 389.707 648.912 388.885 648.912 387.776C648.912 386.635 648.742 385.813 648.4 385.312C648.059 384.8 647.574 384.544 646.944 384.544C646.198 384.544 645.542 384.981 644.976 385.856V389.888C645.2 390.24 645.472 390.517 645.792 390.72C646.123 390.923 646.47 391.024 646.832 391.024ZM659.276 392H658.012L657.9 390.688C657.58 391.211 657.212 391.595 656.796 391.84C656.38 392.075 655.874 392.192 655.276 392.192C654.54 392.192 653.964 391.968 653.548 391.52C653.132 391.072 652.924 390.437 652.924 389.616V383.568H654.396V389.456C654.396 390.032 654.498 390.443 654.7 390.688C654.903 390.923 655.234 391.04 655.692 391.04C656.514 391.04 657.218 390.555 657.804 389.584V383.568H659.276V392ZM662.701 389.968C663.021 389.968 663.288 390.075 663.501 390.288C663.714 390.501 663.821 390.763 663.821 391.072C663.821 391.403 663.725 391.781 663.533 392.208L662.461 394.656H661.405L662.045 392C661.906 391.893 661.794 391.76 661.709 391.6C661.634 391.44 661.597 391.264 661.597 391.072C661.597 390.763 661.704 390.501 661.917 390.288C662.13 390.075 662.392 389.968 662.701 389.968ZM674.331 380.784C674.992 380.784 675.547 380.869 675.995 381.04C676.454 381.211 676.918 381.488 677.387 381.872L676.555 382.848C675.883 382.304 675.174 382.032 674.427 382.032C673.51 382.032 672.768 382.384 672.203 383.088C671.648 383.792 671.371 384.923 671.371 386.48C671.371 387.995 671.648 389.115 672.203 389.84C672.758 390.555 673.494 390.912 674.411 390.912C674.88 390.912 675.291 390.832 675.643 390.672C675.995 390.512 676.368 390.288 676.763 390L677.515 390.96C677.174 391.312 676.736 391.605 676.203 391.84C675.67 392.075 675.056 392.192 674.363 392.192C673.467 392.192 672.667 391.973 671.963 391.536C671.27 391.088 670.726 390.437 670.331 389.584C669.947 388.72 669.755 387.685 669.755 386.48C669.755 385.275 669.958 384.245 670.363 383.392C670.768 382.528 671.318 381.877 672.011 381.44C672.704 381.003 673.478 380.784 674.331 380.784ZM685.3 392L684.468 389.232H680.292L679.46 392H677.924L681.46 380.976H683.38L686.9 392H685.3ZM680.66 388H684.1L682.388 382.24L680.66 388Z" fill="white"/>
<path fill-rule="evenodd" clip-rule="evenodd" d="M660.5 366C664.09 366 667 363.09 667 359.5C667 355.91 664.09 353 660.5 353C656.91 353 654 355.91 654 359.5C654 363.09 656.91 366 660.5 366Z" fill="#4AF6CD"/>
<path fill-rule="evenodd" clip-rule="evenodd" d="M661 363C662.657 363 664 361.657 664 360C664 358.343 662.657 357 661 357C659.343 357 658 358.343 658 360C658 361.657 659.343 363 661 363Z" fill="#4AF6CD"/>
<path d="M731.419 89.6383C732.145 111.105 758.174 100.721 782.845 97.9327C790.155 97.1064 793.957 101.494 790.355 108.25C782.607 122.78 730.75 145.523 739.293 151.639C748.117 157.955 794.852 142.888 797.149 142.483C817.318 138.925 834.728 153.362 833.139 169.017C832.008 180.155 790.707 205.374 776.614 211.722C684.324 253.295 722.404 229.517 627.334 288.589C620.056 293.111 612.565 298.044 606.629 303.903C600.514 309.937 604.166 314.719 608.353 315.766C622.227 319.236 667.249 310.184 666.018 328.279C665.64 333.831 660.511 340.737 659.946 346.356C659.504 350.758 662.031 353.836 663.074 357.575" stroke="white" stroke-width="2"/>
<path d="M398.021 310.976L397.845 312.192H393.573V315.792H397.285V317.008H393.573V320.784H398.149V322H392.053V310.976H398.021ZM406.028 320.032C406.028 320.373 406.087 320.629 406.204 320.8C406.321 320.96 406.497 321.083 406.732 321.168L406.396 322.192C405.959 322.139 405.607 322.016 405.34 321.824C405.073 321.632 404.876 321.333 404.748 320.928C404.183 321.771 403.345 322.192 402.236 322.192C401.404 322.192 400.748 321.957 400.268 321.488C399.788 321.019 399.548 320.405 399.548 319.648C399.548 318.752 399.868 318.064 400.508 317.584C401.159 317.104 402.076 316.864 403.26 316.864H404.556V316.24C404.556 315.643 404.412 315.216 404.124 314.96C403.836 314.704 403.393 314.576 402.796 314.576C402.177 314.576 401.42 314.725 400.524 315.024L400.156 313.952C401.201 313.568 402.172 313.376 403.068 313.376C404.06 313.376 404.801 313.621 405.292 314.112C405.783 314.592 406.028 315.28 406.028 316.176V320.032ZM402.572 321.088C403.415 321.088 404.076 320.651 404.556 319.776V317.84H403.452C401.895 317.84 401.116 318.416 401.116 319.568C401.116 320.069 401.239 320.448 401.484 320.704C401.729 320.96 402.092 321.088 402.572 321.088ZM411.183 313.376C411.759 313.376 412.276 313.456 412.735 313.616C413.194 313.776 413.631 314.016 414.047 314.336L413.423 315.264C413.039 315.019 412.671 314.837 412.319 314.72C411.978 314.603 411.615 314.544 411.231 314.544C410.751 314.544 410.372 314.645 410.095 314.848C409.818 315.04 409.679 315.307 409.679 315.648C409.679 315.989 409.807 316.256 410.063 316.448C410.33 316.64 410.804 316.827 411.487 317.008C412.426 317.243 413.124 317.563 413.583 317.968C414.052 318.373 414.287 318.928 414.287 319.632C414.287 320.464 413.962 321.099 413.311 321.536C412.671 321.973 411.887 322.192 410.959 322.192C409.679 322.192 408.618 321.824 407.775 321.088L408.559 320.192C409.274 320.736 410.063 321.008 410.927 321.008C411.482 321.008 411.919 320.896 412.239 320.672C412.57 320.437 412.735 320.123 412.735 319.728C412.735 319.44 412.676 319.211 412.559 319.04C412.442 318.859 412.239 318.704 411.951 318.576C411.663 318.437 411.242 318.293 410.687 318.144C409.791 317.909 409.14 317.595 408.735 317.2C408.34 316.805 408.143 316.304 408.143 315.696C408.143 315.259 408.271 314.864 408.527 314.512C408.794 314.149 409.156 313.872 409.615 313.68C410.084 313.477 410.607 313.376 411.183 313.376ZM420.62 321.616C420.065 322 419.436 322.192 418.732 322.192C418.017 322.192 417.457 321.989 417.052 321.584C416.657 321.168 416.46 320.571 416.46 319.792V314.704H414.988V313.568H416.46V311.664L417.932 311.488V313.568H419.932L419.772 314.704H417.932V319.728C417.932 320.165 418.006 320.485 418.156 320.688C418.316 320.88 418.577 320.976 418.94 320.976C419.27 320.976 419.644 320.864 420.06 320.64L420.62 321.616ZM429.179 310.784C429.915 310.784 430.545 310.891 431.067 311.104C431.59 311.307 432.097 311.627 432.587 312.064L431.755 312.992C431.339 312.661 430.929 312.421 430.523 312.272C430.129 312.112 429.702 312.032 429.243 312.032C428.667 312.032 428.193 312.165 427.819 312.432C427.446 312.699 427.259 313.088 427.259 313.6C427.259 313.92 427.323 314.192 427.451 314.416C427.579 314.629 427.814 314.827 428.155 315.008C428.507 315.189 429.014 315.381 429.675 315.584C430.369 315.797 430.945 316.027 431.403 316.272C431.862 316.517 432.23 316.859 432.507 317.296C432.795 317.723 432.939 318.267 432.939 318.928C432.939 319.568 432.779 320.133 432.459 320.624C432.15 321.115 431.697 321.499 431.099 321.776C430.513 322.053 429.814 322.192 429.003 322.192C427.478 322.192 426.23 321.717 425.259 320.768L426.091 319.84C426.539 320.203 426.993 320.48 427.451 320.672C427.91 320.853 428.422 320.944 428.987 320.944C429.67 320.944 430.235 320.779 430.683 320.448C431.131 320.107 431.355 319.616 431.355 318.976C431.355 318.613 431.286 318.315 431.147 318.08C431.009 317.835 430.769 317.616 430.427 317.424C430.097 317.232 429.611 317.04 428.971 316.848C427.841 316.507 427.014 316.096 426.491 315.616C425.969 315.136 425.707 314.485 425.707 313.664C425.707 313.109 425.851 312.613 426.139 312.176C426.438 311.739 426.849 311.397 427.371 311.152C427.905 310.907 428.507 310.784 429.179 310.784ZM439.066 313.376C439.834 313.376 440.431 313.605 440.858 314.064C441.295 314.523 441.514 315.152 441.514 315.952V322H440.042V316.16C440.042 315.563 439.925 315.141 439.69 314.896C439.466 314.651 439.135 314.528 438.698 314.528C438.261 314.528 437.871 314.656 437.53 314.912C437.189 315.168 436.869 315.531 436.57 316V322H435.098V310.192L436.57 310.032V314.736C437.231 313.829 438.063 313.376 439.066 313.376ZM447.641 313.376C448.825 313.376 449.742 313.771 450.393 314.56C451.054 315.349 451.385 316.421 451.385 317.776C451.385 318.651 451.236 319.424 450.937 320.096C450.638 320.757 450.206 321.275 449.641 321.648C449.076 322.011 448.404 322.192 447.625 322.192C446.441 322.192 445.518 321.797 444.857 321.008C444.196 320.219 443.865 319.147 443.865 317.792C443.865 316.917 444.014 316.149 444.313 315.488C444.612 314.816 445.044 314.299 445.609 313.936C446.174 313.563 446.852 313.376 447.641 313.376ZM447.641 314.56C446.18 314.56 445.449 315.637 445.449 317.792C445.449 319.936 446.174 321.008 447.625 321.008C449.076 321.008 449.801 319.931 449.801 317.776C449.801 315.632 449.081 314.56 447.641 314.56ZM457.481 313.376C457.78 313.376 458.057 313.408 458.313 313.472L458.041 314.912C457.785 314.848 457.54 314.816 457.305 314.816C456.782 314.816 456.361 315.008 456.041 315.392C455.721 315.776 455.47 316.373 455.289 317.184V322H453.817V313.568H455.081L455.225 315.28C455.449 314.651 455.753 314.176 456.137 313.856C456.521 313.536 456.969 313.376 457.481 313.376ZM465.872 317.536C465.872 317.781 465.862 318.032 465.84 318.288H460.464C460.528 319.216 460.763 319.899 461.168 320.336C461.574 320.773 462.096 320.992 462.736 320.992C463.142 320.992 463.515 320.933 463.856 320.816C464.198 320.699 464.555 320.512 464.928 320.256L465.568 321.136C464.672 321.84 463.691 322.192 462.624 322.192C461.451 322.192 460.534 321.808 459.872 321.04C459.222 320.272 458.896 319.216 458.896 317.872C458.896 316.997 459.035 316.224 459.312 315.552C459.6 314.869 460.006 314.336 460.528 313.952C461.062 313.568 461.686 313.376 462.4 313.376C463.52 313.376 464.379 313.744 464.976 314.48C465.574 315.216 465.872 316.235 465.872 317.536ZM464.416 317.104C464.416 316.272 464.251 315.637 463.92 315.2C463.59 314.763 463.094 314.544 462.432 314.544C461.227 314.544 460.571 315.429 460.464 317.2H464.416V317.104ZM474.41 309.184V323.568H474.058V309.184H474.41ZM493.237 322H491.765L491.381 317.024C491.221 315.072 491.131 313.573 491.109 312.528L488.725 320.752H487.301L484.789 312.512C484.789 313.845 484.72 315.387 484.581 317.136L484.213 322H482.773L483.685 310.976H485.733L488.053 318.992L490.261 310.976H492.325L493.237 322ZM501.434 320.032C501.434 320.373 501.493 320.629 501.61 320.8C501.728 320.96 501.904 321.083 502.138 321.168L501.802 322.192C501.365 322.139 501.013 322.016 500.746 321.824C500.48 321.632 500.282 321.333 500.154 320.928C499.589 321.771 498.752 322.192 497.642 322.192C496.81 322.192 496.154 321.957 495.674 321.488C495.194 321.019 494.954 320.405 494.954 319.648C494.954 318.752 495.274 318.064 495.914 317.584C496.565 317.104 497.482 316.864 498.666 316.864H499.962V316.24C499.962 315.643 499.818 315.216 499.53 314.96C499.242 314.704 498.8 314.576 498.202 314.576C497.584 314.576 496.826 314.725 495.93 315.024L495.562 313.952C496.608 313.568 497.578 313.376 498.474 313.376C499.466 313.376 500.208 313.621 500.698 314.112C501.189 314.592 501.434 315.28 501.434 316.176V320.032ZM497.978 321.088C498.821 321.088 499.482 320.651 499.962 319.776V317.84H498.858C497.301 317.84 496.522 318.416 496.522 319.568C496.522 320.069 496.645 320.448 496.89 320.704C497.136 320.96 497.498 321.088 497.978 321.088ZM505.981 322.192C505.437 322.192 505.005 322.032 504.685 321.712C504.376 321.381 504.221 320.923 504.221 320.336V310.176L505.693 310V320.304C505.693 320.539 505.731 320.709 505.805 320.816C505.891 320.923 506.029 320.976 506.221 320.976C506.424 320.976 506.605 320.944 506.765 320.88L507.149 321.904C506.797 322.096 506.408 322.192 505.981 322.192ZM510.461 313.568V322H508.989V313.568H510.461ZM509.709 309.52C510.018 309.52 510.269 309.616 510.461 309.808C510.653 310 510.749 310.24 510.749 310.528C510.749 310.816 510.653 311.056 510.461 311.248C510.269 311.429 510.018 311.52 509.709 311.52C509.41 311.52 509.165 311.429 508.973 311.248C508.781 311.056 508.685 310.816 508.685 310.528C508.685 310.24 508.781 310 508.973 309.808C509.165 309.616 509.41 309.52 509.709 309.52ZM517.36 313.376C518.32 313.376 519.083 313.765 519.648 314.544C520.214 315.312 520.496 316.389 520.496 317.776C520.496 318.651 520.363 319.424 520.096 320.096C519.83 320.757 519.446 321.275 518.944 321.648C518.443 322.011 517.856 322.192 517.184 322.192C516.299 322.192 515.552 321.819 514.944 321.072L514.8 322H513.504V310.176L514.976 310V314.624C515.584 313.792 516.379 313.376 517.36 313.376ZM516.832 321.024C517.483 321.024 517.99 320.763 518.352 320.24C518.726 319.707 518.912 318.885 518.912 317.776C518.912 316.635 518.742 315.813 518.4 315.312C518.059 314.8 517.574 314.544 516.944 314.544C516.198 314.544 515.542 314.981 514.976 315.856V319.888C515.2 320.24 515.472 320.517 515.792 320.72C516.123 320.923 516.47 321.024 516.832 321.024ZM529.276 322H528.012L527.9 320.688C527.58 321.211 527.212 321.595 526.796 321.84C526.38 322.075 525.874 322.192 525.276 322.192C524.54 322.192 523.964 321.968 523.548 321.52C523.132 321.072 522.924 320.437 522.924 319.616V313.568H524.396V319.456C524.396 320.032 524.498 320.443 524.7 320.688C524.903 320.923 525.234 321.04 525.692 321.04C526.514 321.04 527.218 320.555 527.804 319.584V313.568H529.276V322ZM532.701 319.968C533.021 319.968 533.288 320.075 533.501 320.288C533.714 320.501 533.821 320.763 533.821 321.072C533.821 321.403 533.725 321.781 533.533 322.208L532.461 324.656H531.405L532.045 322C531.906 321.893 531.794 321.76 531.709 321.6C531.634 321.44 531.597 321.264 531.597 321.072C531.597 320.763 531.704 320.501 531.917 320.288C532.13 320.075 532.392 319.968 532.701 319.968ZM544.331 310.784C544.992 310.784 545.547 310.869 545.995 311.04C546.454 311.211 546.918 311.488 547.387 311.872L546.555 312.848C545.883 312.304 545.174 312.032 544.427 312.032C543.51 312.032 542.768 312.384 542.203 313.088C541.648 313.792 541.371 314.923 541.371 316.48C541.371 317.995 541.648 319.115 542.203 319.84C542.758 320.555 543.494 320.912 544.411 320.912C544.88 320.912 545.291 320.832 545.643 320.672C545.995 320.512 546.368 320.288 546.763 320L547.515 320.96C547.174 321.312 546.736 321.605 546.203 321.84C545.67 322.075 545.056 322.192 544.363 322.192C543.467 322.192 542.667 321.973 541.963 321.536C541.27 321.088 540.726 320.437 540.331 319.584C539.947 318.72 539.755 317.685 539.755 316.48C539.755 315.275 539.958 314.245 540.363 313.392C540.768 312.528 541.318 311.877 542.011 311.44C542.704 311.003 543.478 310.784 544.331 310.784ZM555.3 322L554.468 319.232H550.292L549.46 322H547.924L551.46 310.976H553.38L556.9 322H555.3ZM550.66 318H554.1L552.388 312.24L550.66 318Z" fill="white"/>
<path fill-rule="evenodd" clip-rule="evenodd" d="M573.5 326C577.09 326 580 323.09 580 319.5C580 315.91 577.09 313 573.5 313C569.91 313 567 315.91 567 319.5C567 323.09 569.91 326 573.5 326Z" fill="#4AF6CD"/>
<path fill-rule="evenodd" clip-rule="evenodd" d="M574 323C575.657 323 577 321.657 577 320C577 318.343 575.657 317 574 317C572.343 317 571 318.343 571 320C571 321.657 572.343 323 574 323Z" fill="#4AF6CD"/>
<path d="M731.467 83C722.908 110.809 740.255 77.5668 756.3 95.7422C761.054 101.128 751.257 110.118 746.253 115.5C735.491 127.074 704.94 110.144 707.528 125.402C710.201 141.159 744.697 163.207 746.253 164.715C759.906 177.955 764.352 211.545 756.833 229.961C751.482 243.065 716.008 238.648 704.849 234.284C631.774 205.707 664.702 209.115 582.615 200.241C576.332 199.561 569.747 199.214 563.712 201.407C557.495 203.665 557.693 212.93 559.779 217.938C566.69 234.537 597.633 262.691 589.306 284.509C586.751 291.204 580.764 295.433 578.068 302.048C575.956 307.231 576.19 313.349 575.251 319" stroke="white" stroke-width="2"/>
<path d="M202.359 255H200.327L195.847 245.64C195.911 246.376 195.959 247.059 195.991 247.688C196.034 248.307 196.055 249.059 196.055 249.944V255H194.631V243.976H196.615L201.143 253.352C201.111 253.075 201.069 252.589 201.015 251.896C200.962 251.203 200.935 250.568 200.935 249.992V243.976H202.359V255ZM208.641 246.376C209.825 246.376 210.742 246.771 211.393 247.56C212.054 248.349 212.385 249.421 212.385 250.776C212.385 251.651 212.236 252.424 211.937 253.096C211.638 253.757 211.206 254.275 210.641 254.648C210.076 255.011 209.404 255.192 208.625 255.192C207.441 255.192 206.518 254.797 205.857 254.008C205.196 253.219 204.865 252.147 204.865 250.792C204.865 249.917 205.014 249.149 205.313 248.488C205.612 247.816 206.044 247.299 206.609 246.936C207.174 246.563 207.852 246.376 208.641 246.376ZM208.641 247.56C207.18 247.56 206.449 248.637 206.449 250.792C206.449 252.936 207.174 254.008 208.625 254.008C210.076 254.008 210.801 252.931 210.801 250.776C210.801 248.632 210.081 247.56 208.641 247.56ZM218.481 246.376C218.78 246.376 219.057 246.408 219.313 246.472L219.041 247.912C218.785 247.848 218.54 247.816 218.305 247.816C217.782 247.816 217.361 248.008 217.041 248.392C216.721 248.776 216.47 249.373 216.289 250.184V255H214.817V246.568H216.081L216.225 248.28C216.449 247.651 216.753 247.176 217.137 246.856C217.521 246.536 217.969 246.376 218.481 246.376ZM225.245 254.616C224.69 255 224.061 255.192 223.357 255.192C222.642 255.192 222.082 254.989 221.677 254.584C221.282 254.168 221.085 253.571 221.085 252.792V247.704H219.613V246.568H221.085V244.664L222.557 244.488V246.568H224.557L224.397 247.704H222.557V252.728C222.557 253.165 222.631 253.485 222.781 253.688C222.941 253.88 223.202 253.976 223.565 253.976C223.895 253.976 224.269 253.864 224.685 253.64L225.245 254.616ZM230.738 246.376C231.506 246.376 232.103 246.605 232.53 247.064C232.967 247.523 233.186 248.152 233.186 248.952V255H231.714V249.16C231.714 248.563 231.597 248.141 231.362 247.896C231.138 247.651 230.807 247.528 230.37 247.528C229.933 247.528 229.543 247.656 229.202 247.912C228.861 248.168 228.541 248.531 228.242 249V255H226.77V243.192L228.242 243.032V247.736C228.903 246.829 229.735 246.376 230.738 246.376ZM243.179 243.784C243.915 243.784 244.545 243.891 245.067 244.104C245.59 244.307 246.097 244.627 246.587 245.064L245.755 245.992C245.339 245.661 244.929 245.421 244.523 245.272C244.129 245.112 243.702 245.032 243.243 245.032C242.667 245.032 242.193 245.165 241.819 245.432C241.446 245.699 241.259 246.088 241.259 246.6C241.259 246.92 241.323 247.192 241.451 247.416C241.579 247.629 241.814 247.827 242.155 248.008C242.507 248.189 243.014 248.381 243.675 248.584C244.369 248.797 244.945 249.027 245.403 249.272C245.862 249.517 246.23 249.859 246.507 250.296C246.795 250.723 246.939 251.267 246.939 251.928C246.939 252.568 246.779 253.133 246.459 253.624C246.15 254.115 245.697 254.499 245.099 254.776C244.513 255.053 243.814 255.192 243.003 255.192C241.478 255.192 240.23 254.717 239.259 253.768L240.091 252.84C240.539 253.203 240.993 253.48 241.451 253.672C241.91 253.853 242.422 253.944 242.987 253.944C243.67 253.944 244.235 253.779 244.683 253.448C245.131 253.107 245.355 252.616 245.355 251.976C245.355 251.613 245.286 251.315 245.147 251.08C245.009 250.835 244.769 250.616 244.427 250.424C244.097 250.232 243.611 250.04 242.971 249.848C241.841 249.507 241.014 249.096 240.491 248.616C239.969 248.136 239.707 247.485 239.707 246.664C239.707 246.109 239.851 245.613 240.139 245.176C240.438 244.739 240.849 244.397 241.371 244.152C241.905 243.907 242.507 243.784 243.179 243.784ZM253.066 246.376C253.834 246.376 254.431 246.605 254.858 247.064C255.295 247.523 255.514 248.152 255.514 248.952V255H254.042V249.16C254.042 248.563 253.925 248.141 253.69 247.896C253.466 247.651 253.135 247.528 252.698 247.528C252.261 247.528 251.871 247.656 251.53 247.912C251.189 248.168 250.869 248.531 250.57 249V255H249.098V243.192L250.57 243.032V247.736C251.231 246.829 252.063 246.376 253.066 246.376ZM261.641 246.376C262.825 246.376 263.742 246.771 264.393 247.56C265.054 248.349 265.385 249.421 265.385 250.776C265.385 251.651 265.236 252.424 264.937 253.096C264.638 253.757 264.206 254.275 263.641 254.648C263.076 255.011 262.404 255.192 261.625 255.192C260.441 255.192 259.518 254.797 258.857 254.008C258.196 253.219 257.865 252.147 257.865 250.792C257.865 249.917 258.014 249.149 258.313 248.488C258.612 247.816 259.044 247.299 259.609 246.936C260.174 246.563 260.852 246.376 261.641 246.376ZM261.641 247.56C260.18 247.56 259.449 248.637 259.449 250.792C259.449 252.936 260.174 254.008 261.625 254.008C263.076 254.008 263.801 252.931 263.801 250.776C263.801 248.632 263.081 247.56 261.641 247.56ZM271.481 246.376C271.78 246.376 272.057 246.408 272.313 246.472L272.041 247.912C271.785 247.848 271.54 247.816 271.305 247.816C270.782 247.816 270.361 248.008 270.041 248.392C269.721 248.776 269.47 249.373 269.289 250.184V255H267.817V246.568H269.081L269.225 248.28C269.449 247.651 269.753 247.176 270.137 246.856C270.521 246.536 270.969 246.376 271.481 246.376ZM279.872 250.536C279.872 250.781 279.862 251.032 279.84 251.288H274.464C274.528 252.216 274.763 252.899 275.168 253.336C275.574 253.773 276.096 253.992 276.736 253.992C277.142 253.992 277.515 253.933 277.856 253.816C278.198 253.699 278.555 253.512 278.928 253.256L279.568 254.136C278.672 254.84 277.691 255.192 276.624 255.192C275.451 255.192 274.534 254.808 273.872 254.04C273.222 253.272 272.896 252.216 272.896 250.872C272.896 249.997 273.035 249.224 273.312 248.552C273.6 247.869 274.006 247.336 274.528 246.952C275.062 246.568 275.686 246.376 276.4 246.376C277.52 246.376 278.379 246.744 278.976 247.48C279.574 248.216 279.872 249.235 279.872 250.536ZM278.416 250.104C278.416 249.272 278.251 248.637 277.92 248.2C277.59 247.763 277.094 247.544 276.432 247.544C275.227 247.544 274.571 248.429 274.464 250.2H278.416V250.104ZM288.41 242.184V256.568H288.058V242.184H288.41ZM307.237 255H305.765L305.381 250.024C305.221 248.072 305.131 246.573 305.109 245.528L302.725 253.752H301.301L298.789 245.512C298.789 246.845 298.72 248.387 298.581 250.136L298.213 255H296.773L297.685 243.976H299.733L302.053 251.992L304.261 243.976H306.325L307.237 255ZM315.434 253.032C315.434 253.373 315.493 253.629 315.61 253.8C315.728 253.96 315.904 254.083 316.138 254.168L315.802 255.192C315.365 255.139 315.013 255.016 314.746 254.824C314.48 254.632 314.282 254.333 314.154 253.928C313.589 254.771 312.752 255.192 311.642 255.192C310.81 255.192 310.154 254.957 309.674 254.488C309.194 254.019 308.954 253.405 308.954 252.648C308.954 251.752 309.274 251.064 309.914 250.584C310.565 250.104 311.482 249.864 312.666 249.864H313.962V249.24C313.962 248.643 313.818 248.216 313.53 247.96C313.242 247.704 312.8 247.576 312.202 247.576C311.584 247.576 310.826 247.725 309.93 248.024L309.562 246.952C310.608 246.568 311.578 246.376 312.474 246.376C313.466 246.376 314.208 246.621 314.698 247.112C315.189 247.592 315.434 248.28 315.434 249.176V253.032ZM311.978 254.088C312.821 254.088 313.482 253.651 313.962 252.776V250.84H312.858C311.301 250.84 310.522 251.416 310.522 252.568C310.522 253.069 310.645 253.448 310.89 253.704C311.136 253.96 311.498 254.088 311.978 254.088ZM319.981 255.192C319.437 255.192 319.005 255.032 318.685 254.712C318.376 254.381 318.221 253.923 318.221 253.336V243.176L319.693 243V253.304C319.693 253.539 319.731 253.709 319.805 253.816C319.891 253.923 320.029 253.976 320.221 253.976C320.424 253.976 320.605 253.944 320.765 253.88L321.149 254.904C320.797 255.096 320.408 255.192 319.981 255.192ZM324.461 246.568V255H322.989V246.568H324.461ZM323.709 242.52C324.018 242.52 324.269 242.616 324.461 242.808C324.653 243 324.749 243.24 324.749 243.528C324.749 243.816 324.653 244.056 324.461 244.248C324.269 244.429 324.018 244.52 323.709 244.52C323.41 244.52 323.165 244.429 322.973 244.248C322.781 244.056 322.685 243.816 322.685 243.528C322.685 243.24 322.781 243 322.973 242.808C323.165 242.616 323.41 242.52 323.709 242.52ZM331.36 246.376C332.32 246.376 333.083 246.765 333.648 247.544C334.214 248.312 334.496 249.389 334.496 250.776C334.496 251.651 334.363 252.424 334.096 253.096C333.83 253.757 333.446 254.275 332.944 254.648C332.443 255.011 331.856 255.192 331.184 255.192C330.299 255.192 329.552 254.819 328.944 254.072L328.8 255H327.504V243.176L328.976 243V247.624C329.584 246.792 330.379 246.376 331.36 246.376ZM330.832 254.024C331.483 254.024 331.99 253.763 332.352 253.24C332.726 252.707 332.912 251.885 332.912 250.776C332.912 249.635 332.742 248.813 332.4 248.312C332.059 247.8 331.574 247.544 330.944 247.544C330.198 247.544 329.542 247.981 328.976 248.856V252.888C329.2 253.24 329.472 253.517 329.792 253.72C330.123 253.923 330.47 254.024 330.832 254.024ZM343.276 255H342.012L341.9 253.688C341.58 254.211 341.212 254.595 340.796 254.84C340.38 255.075 339.874 255.192 339.276 255.192C338.54 255.192 337.964 254.968 337.548 254.52C337.132 254.072 336.924 253.437 336.924 252.616V246.568H338.396V252.456C338.396 253.032 338.498 253.443 338.7 253.688C338.903 253.923 339.234 254.04 339.692 254.04C340.514 254.04 341.218 253.555 341.804 252.584V246.568H343.276V255ZM346.701 252.968C347.021 252.968 347.288 253.075 347.501 253.288C347.714 253.501 347.821 253.763 347.821 254.072C347.821 254.403 347.725 254.781 347.533 255.208L346.461 257.656H345.405L346.045 255C345.906 254.893 345.794 254.76 345.709 254.6C345.634 254.44 345.597 254.264 345.597 254.072C345.597 253.763 345.704 253.501 345.917 253.288C346.13 253.075 346.392 252.968 346.701 252.968ZM358.331 243.784C358.992 243.784 359.547 243.869 359.995 244.04C360.454 244.211 360.918 244.488 361.387 244.872L360.555 245.848C359.883 245.304 359.174 245.032 358.427 245.032C357.51 245.032 356.768 245.384 356.203 246.088C355.648 246.792 355.371 247.923 355.371 249.48C355.371 250.995 355.648 252.115 356.203 252.84C356.758 253.555 357.494 253.912 358.411 253.912C358.88 253.912 359.291 253.832 359.643 253.672C359.995 253.512 360.368 253.288 360.763 253L361.515 253.96C361.174 254.312 360.736 254.605 360.203 254.84C359.67 255.075 359.056 255.192 358.363 255.192C357.467 255.192 356.667 254.973 355.963 254.536C355.27 254.088 354.726 253.437 354.331 252.584C353.947 251.72 353.755 250.685 353.755 249.48C353.755 248.275 353.958 247.245 354.363 246.392C354.768 245.528 355.318 244.877 356.011 244.44C356.704 244.003 357.478 243.784 358.331 243.784ZM369.3 255L368.468 252.232H364.292L363.46 255H361.924L365.46 243.976H367.38L370.9 255H369.3ZM364.66 251H368.1L366.388 245.24L364.66 251Z" fill="white"/>
<path fill-rule="evenodd" clip-rule="evenodd" d="M364.5 231C368.09 231 371 228.09 371 224.5C371 220.91 368.09 218 364.5 218C360.91 218 358 220.91 358 224.5C358 228.09 360.91 231 364.5 231Z" fill="#4AF6CD"/>
<path fill-rule="evenodd" clip-rule="evenodd" d="M365 228C366.657 228 368 226.657 368 225C368 223.343 366.657 222 365 222C363.343 222 362 223.343 362 225C362 226.657 363.343 228 365 228Z" fill="#4AF6CD"/>
<path d="M732.557 83.2396C700.903 101.759 704.808 124.262 698.212 151.39C696.258 159.429 688.209 167.571 679.902 168.831C662.039 171.54 651.257 128.4 638.634 143.618C625.597 159.335 627.387 202.68 626.986 205.086C623.461 226.212 594.855 258.847 572.687 269.826C556.914 277.638 537.953 249.123 534.779 237.536C513.988 161.662 532.237 187.522 487.1 122.723C483.645 117.762 479.682 112.885 473.696 110.623C467.529 108.294 458.97 116.581 455.631 122.435C444.566 141.835 438.314 188.084 412.43 201.495C404.487 205.611 396.622 205.173 388.662 209.121C382.427 212.214 376.841 217.759 370.931 222.077" stroke="white" stroke-width="2"/>
<path fill-rule="evenodd" clip-rule="evenodd" d="M729.5 91C733.09 91 736 88.0899 736 84.5C736 80.9101 733.09 78 729.5 78C725.91 78 723 80.9101 723 84.5C723 88.0899 725.91 91 729.5 91Z" fill="#4AF6CD"/>
<path d="M598.378 75.784C599.039 75.784 599.594 75.8693 600.042 76.04C600.501 76.2107 600.965 76.488 601.434 76.872L600.602 77.848C599.93 77.304 599.221 77.032 598.474 77.032C597.557 77.032 596.815 77.384 596.25 78.088C595.695 78.792 595.418 79.9227 595.418 81.48C595.418 82.9947 595.695 84.1147 596.25 84.84C596.805 85.5547 597.541 85.912 598.458 85.912C598.927 85.912 599.338 85.832 599.69 85.672C600.042 85.512 600.415 85.288 600.81 85L601.562 85.96C601.221 86.312 600.783 86.6053 600.25 86.84C599.717 87.0747 599.103 87.192 598.41 87.192C597.514 87.192 596.714 86.9733 596.01 86.536C595.317 86.088 594.773 85.4373 594.378 84.584C593.994 83.72 593.802 82.6853 593.802 81.48C593.802 80.2747 594.005 79.2453 594.41 78.392C594.815 77.528 595.365 76.8773 596.058 76.44C596.751 76.0027 597.525 75.784 598.378 75.784ZM609.401 87H608.137L608.025 85.688C607.705 86.2107 607.337 86.5947 606.921 86.84C606.505 87.0747 605.999 87.192 605.401 87.192C604.665 87.192 604.089 86.968 603.673 86.52C603.257 86.072 603.049 85.4373 603.049 84.616V78.568H604.521V84.456C604.521 85.032 604.623 85.4427 604.825 85.688C605.028 85.9227 605.359 86.04 605.817 86.04C606.639 86.04 607.343 85.5547 607.929 84.584V78.568H609.401V87ZM616.106 78.376C616.405 78.376 616.682 78.408 616.938 78.472L616.666 79.912C616.41 79.848 616.165 79.816 615.93 79.816C615.407 79.816 614.986 80.008 614.666 80.392C614.346 80.776 614.095 81.3733 613.914 82.184V87H612.442V78.568H613.706L613.85 80.28C614.074 79.6507 614.378 79.176 614.762 78.856C615.146 78.536 615.594 78.376 616.106 78.376ZM622.278 78.376C622.576 78.376 622.854 78.408 623.11 78.472L622.838 79.912C622.582 79.848 622.336 79.816 622.102 79.816C621.579 79.816 621.158 80.008 620.838 80.392C620.518 80.776 620.267 81.3733 620.086 82.184V87H618.614V78.568H619.878L620.022 80.28C620.246 79.6507 620.55 79.176 620.934 78.856C621.318 78.536 621.766 78.376 622.278 78.376ZM630.669 82.536C630.669 82.7813 630.659 83.032 630.637 83.288H625.261C625.325 84.216 625.56 84.8987 625.965 85.336C626.371 85.7733 626.893 85.992 627.533 85.992C627.939 85.992 628.312 85.9333 628.653 85.816C628.995 85.6987 629.352 85.512 629.725 85.256L630.365 86.136C629.469 86.84 628.488 87.192 627.421 87.192C626.248 87.192 625.331 86.808 624.669 86.04C624.019 85.272 623.693 84.216 623.693 82.872C623.693 81.9973 623.832 81.224 624.109 80.552C624.397 79.8693 624.803 79.336 625.325 78.952C625.859 78.568 626.483 78.376 627.197 78.376C628.317 78.376 629.176 78.744 629.773 79.48C630.371 80.216 630.669 81.2347 630.669 82.536ZM629.213 82.104C629.213 81.272 629.048 80.6373 628.717 80.2C628.387 79.7627 627.891 79.544 627.229 79.544C626.024 79.544 625.368 80.4293 625.261 82.2H629.213V82.104ZM636.988 78.376C637.756 78.376 638.353 78.6053 638.78 79.064C639.217 79.5227 639.436 80.152 639.436 80.952V87H637.964V81.16C637.964 80.5627 637.852 80.1413 637.628 79.896C637.404 79.6507 637.073 79.528 636.636 79.528C636.188 79.528 635.793 79.656 635.452 79.912C635.111 80.168 634.791 80.536 634.492 81.016V87H633.02V78.568H634.284L634.412 79.816C634.711 79.368 635.079 79.016 635.516 78.76C635.964 78.504 636.455 78.376 636.988 78.376ZM646.651 86.616C646.096 87 645.467 87.192 644.763 87.192C644.048 87.192 643.488 86.9893 643.083 86.584C642.688 86.168 642.491 85.5707 642.491 84.792V79.704H641.019V78.568H642.491V76.664L643.963 76.488V78.568H645.963L645.803 79.704H643.963V84.728C643.963 85.1653 644.038 85.4853 644.187 85.688C644.347 85.88 644.608 85.976 644.971 85.976C645.302 85.976 645.675 85.864 646.091 85.64L646.651 86.616ZM654.011 75.976V85.672H658.539L658.363 87H652.491V75.976H654.011ZM663.141 78.376C664.325 78.376 665.242 78.7707 665.893 79.56C666.554 80.3493 666.885 81.4213 666.885 82.776C666.885 83.6507 666.736 84.424 666.437 85.096C666.138 85.7573 665.706 86.2747 665.141 86.648C664.576 87.0107 663.904 87.192 663.125 87.192C661.941 87.192 661.018 86.7973 660.357 86.008C659.696 85.2187 659.365 84.1467 659.365 82.792C659.365 81.9173 659.514 81.1493 659.813 80.488C660.112 79.816 660.544 79.2987 661.109 78.936C661.674 78.5627 662.352 78.376 663.141 78.376ZM663.141 79.56C661.68 79.56 660.949 80.6373 660.949 82.792C660.949 84.936 661.674 86.008 663.125 86.008C664.576 86.008 665.301 84.9307 665.301 82.776C665.301 80.632 664.581 79.56 663.141 79.56ZM672.389 78.376C672.89 78.376 673.349 78.4507 673.765 78.6C674.181 78.7387 674.581 78.968 674.965 79.288L674.261 80.216C673.962 80.0027 673.669 79.848 673.381 79.752C673.104 79.6453 672.794 79.592 672.453 79.592C671.77 79.592 671.237 79.864 670.853 80.408C670.48 80.952 670.293 81.7573 670.293 82.824C670.293 83.8907 670.48 84.68 670.853 85.192C671.226 85.6933 671.76 85.944 672.453 85.944C672.784 85.944 673.088 85.896 673.365 85.8C673.642 85.6933 673.952 85.528 674.293 85.304L674.965 86.264C674.197 86.8827 673.338 87.192 672.389 87.192C671.248 87.192 670.346 86.808 669.685 86.04C669.034 85.272 668.709 84.2107 668.709 82.856C668.709 81.96 668.858 81.176 669.157 80.504C669.456 79.832 669.877 79.3093 670.421 78.936C670.976 78.5627 671.632 78.376 672.389 78.376ZM682.481 85.032C682.481 85.3733 682.54 85.6293 682.657 85.8C682.775 85.96 682.951 86.0827 683.185 86.168L682.849 87.192C682.412 87.1387 682.06 87.016 681.793 86.824C681.527 86.632 681.329 86.3333 681.201 85.928C680.636 86.7707 679.799 87.192 678.689 87.192C677.857 87.192 677.201 86.9573 676.721 86.488C676.241 86.0187 676.001 85.4053 676.001 84.648C676.001 83.752 676.321 83.064 676.961 82.584C677.612 82.104 678.529 81.864 679.713 81.864H681.009V81.24C681.009 80.6427 680.865 80.216 680.577 79.96C680.289 79.704 679.847 79.576 679.249 79.576C678.631 79.576 677.873 79.7253 676.977 80.024L676.609 78.952C677.655 78.568 678.625 78.376 679.521 78.376C680.513 78.376 681.255 78.6213 681.745 79.112C682.236 79.592 682.481 80.28 682.481 81.176V85.032ZM679.025 86.088C679.868 86.088 680.529 85.6507 681.009 84.776V82.84H679.905C678.348 82.84 677.569 83.416 677.569 84.568C677.569 85.0693 677.692 85.448 677.937 85.704C678.183 85.96 678.545 86.088 679.025 86.088ZM689.76 86.616C689.206 87 688.576 87.192 687.872 87.192C687.158 87.192 686.598 86.9893 686.192 86.584C685.798 86.168 685.6 85.5707 685.6 84.792V79.704H684.128V78.568H685.6V76.664L687.072 76.488V78.568H689.072L688.912 79.704H687.072V84.728C687.072 85.1653 687.147 85.4853 687.296 85.688C687.456 85.88 687.718 85.976 688.08 85.976C688.411 85.976 688.784 85.864 689.2 85.64L689.76 86.616ZM692.758 78.568V87H691.286V78.568H692.758ZM692.006 74.52C692.315 74.52 692.566 74.616 692.758 74.808C692.95 75 693.046 75.24 693.046 75.528C693.046 75.816 692.95 76.056 692.758 76.248C692.566 76.4293 692.315 76.52 692.006 76.52C691.707 76.52 691.462 76.4293 691.27 76.248C691.078 76.056 690.982 75.816 690.982 75.528C690.982 75.24 691.078 75 691.27 74.808C691.462 74.616 691.707 74.52 692.006 74.52ZM698.969 78.376C700.153 78.376 701.071 78.7707 701.721 79.56C702.383 80.3493 702.713 81.4213 702.713 82.776C702.713 83.6507 702.564 84.424 702.265 85.096C701.967 85.7573 701.535 86.2747 700.969 86.648C700.404 87.0107 699.732 87.192 698.953 87.192C697.769 87.192 696.847 86.7973 696.185 86.008C695.524 85.2187 695.193 84.1467 695.193 82.792C695.193 81.9173 695.343 81.1493 695.641 80.488C695.94 79.816 696.372 79.2987 696.937 78.936C697.503 78.5627 698.18 78.376 698.969 78.376ZM698.969 79.56C697.508 79.56 696.777 80.6373 696.777 82.792C696.777 84.936 697.503 86.008 698.953 86.008C700.404 86.008 701.129 84.9307 701.129 82.776C701.129 80.632 700.409 79.56 698.969 79.56ZM709.113 78.376C709.881 78.376 710.478 78.6053 710.905 79.064C711.342 79.5227 711.561 80.152 711.561 80.952V87H710.089V81.16C710.089 80.5627 709.977 80.1413 709.753 79.896C709.529 79.6507 709.198 79.528 708.761 79.528C708.313 79.528 707.918 79.656 707.577 79.912C707.236 80.168 706.916 80.536 706.617 81.016V87H705.145V78.568H706.409L706.537 79.816C706.836 79.368 707.204 79.016 707.641 78.76C708.089 78.504 708.58 78.376 709.113 78.376Z" fill="white"/>
</svg>
