<svg width="1294" height="635" viewBox="0 0 1294 635" fill="none" xmlns="http://www.w3.org/2000/svg">
<path fill-rule="evenodd" clip-rule="evenodd" d="M1137 514C1137 520.627 1142.37 526 1149 526C1155.63 526 1161 520.627 1161 514C1161 507.373 1149 493 1149 493C1149 493 1137 507.373 1137 514Z" fill="#4AF6CD"/>
<g filter="url(#filter0_d)">
<path fill-rule="evenodd" clip-rule="evenodd" d="M1149 527C1155.63 527 1161 521.627 1161 515C1161 508.373 1155.63 503 1149 503C1142.37 503 1137 508.373 1137 515C1137 521.627 1142.37 527 1149 527Z" fill="#4AF6CD"/>
</g>
<path fill-rule="evenodd" clip-rule="evenodd" d="M1067 314C1067 320.627 1072.37 326 1079 326C1085.63 326 1091 320.627 1091 314C1091 307.373 1079 293 1079 293C1079 293 1067 307.373 1067 314Z" fill="#4AF6CD"/>
<g filter="url(#filter1_d)">
<path fill-rule="evenodd" clip-rule="evenodd" d="M1079 326C1085.63 326 1091 320.627 1091 314C1091 307.373 1085.63 302 1079 302C1072.37 302 1067 307.373 1067 314C1067 320.627 1072.37 326 1079 326Z" fill="#4AF6CD"/>
</g>
<path fill-rule="evenodd" clip-rule="evenodd" d="M846 407C846 413.627 851.373 419 858 419C864.627 419 870 413.627 870 407C870 400.373 858 386 858 386C858 386 846 400.373 846 407Z" fill="#4AF6CD"/>
<g filter="url(#filter2_d)">
<path fill-rule="evenodd" clip-rule="evenodd" d="M858 419C864.627 419 870 413.627 870 407C870 400.373 864.627 395 858 395C851.373 395 846 400.373 846 407C846 413.627 851.373 419 858 419Z" fill="#4AF6CD"/>
</g>
<path fill-rule="evenodd" clip-rule="evenodd" d="M685 567C685 573.627 690.373 579 697 579C703.627 579 709 573.627 709 567C709 560.373 697 546 697 546C697 546 685 560.373 685 567Z" fill="#4AF6CD"/>
<g filter="url(#filter3_d)">
<path fill-rule="evenodd" clip-rule="evenodd" d="M697 579C703.627 579 709 573.627 709 567C709 560.373 703.627 555 697 555C690.373 555 685 560.373 685 567C685 573.627 690.373 579 697 579Z" fill="#4AF6CD"/>
</g>
<path fill-rule="evenodd" clip-rule="evenodd" d="M578 224C578 230.627 583.373 236 590 236C596.627 236 602 230.627 602 224C602 217.373 590 203 590 203C590 203 578 217.373 578 224Z" fill="#4AF6CD"/>
<g filter="url(#filter4_d)">
<path fill-rule="evenodd" clip-rule="evenodd" d="M590 236C596.627 236 602 230.627 602 224C602 217.373 596.627 212 590 212C583.373 212 578 217.373 578 224C578 230.627 583.373 236 590 236Z" fill="#4AF6CD"/>
</g>
<path fill-rule="evenodd" clip-rule="evenodd" d="M461 511C461 517.627 466.373 523 473 523C479.627 523 485 517.627 485 511C485 504.373 473 490 473 490C473 490 461 504.373 461 511Z" fill="#4AF6CD"/>
<g filter="url(#filter5_d)">
<path fill-rule="evenodd" clip-rule="evenodd" d="M473 525C479.627 525 485 519.627 485 513C485 506.373 479.627 501 473 501C466.373 501 461 506.373 461 513C461 519.627 466.373 525 473 525Z" fill="#4AF6CD"/>
</g>
<path fill-rule="evenodd" clip-rule="evenodd" d="M386 329C386 335.627 391.373 341 398 341C404.627 341 410 335.627 410 329C410 322.373 398 308 398 308C398 308 386 322.373 386 329Z" fill="#4AF6CD"/>
<g filter="url(#filter6_d)">
<path fill-rule="evenodd" clip-rule="evenodd" d="M398 342C404.627 342 410 336.627 410 330C410 323.373 404.627 318 398 318C391.373 318 386 323.373 386 330C386 336.627 391.373 342 398 342Z" fill="#4AF6CD"/>
</g>
<path fill-rule="evenodd" clip-rule="evenodd" d="M184 302C184 308.627 189.373 314 196 314C202.627 314 208 308.627 208 302C208 295.373 196 281 196 281C196 281 184 295.373 184 302Z" fill="#4AF6CD"/>
<g filter="url(#filter7_d)">
<path fill-rule="evenodd" clip-rule="evenodd" d="M196 314C202.627 314 208 308.627 208 302C208 295.373 202.627 290 196 290C189.373 290 184 295.373 184 302C184 308.627 189.373 314 196 314Z" fill="#4AF6CD"/>
</g>
<path fill-rule="evenodd" clip-rule="evenodd" d="M35 342C35 348.627 40.3726 354 47 354C53.6274 354 59 348.627 59 342C59 335.373 47 321 47 321C47 321 35 335.373 35 342Z" fill="#4AF6CD"/>
<g filter="url(#filter8_d)">
<path fill-rule="evenodd" clip-rule="evenodd" d="M47 354C53.6274 354 59 348.627 59 342C59 335.373 53.6274 330 47 330C40.3726 330 35 335.373 35 342C35 348.627 40.3726 354 47 354Z" fill="#4AF6CD"/>
</g>
<defs>
<filter id="filter0_d" x="1102" y="468" width="94" height="94" filterUnits="userSpaceOnUse" color-interpolation-filters="sRGB">
<feFlood flood-opacity="0" result="BackgroundImageFix"/>
<feColorMatrix in="SourceAlpha" type="matrix" values="0 0 0 0 0 0 0 0 0 0 0 0 0 0 0 0 0 0 127 0"/>
<feOffset/>
<feGaussianBlur stdDeviation="17.5"/>
<feColorMatrix type="matrix" values="0 0 0 0 0.289399 0 0 0 0 0.964817 0 0 0 0 0.803534 0 0 0 0.837777 0"/>
<feBlend mode="normal" in2="BackgroundImageFix" result="effect1_dropShadow"/>
<feBlend mode="normal" in="SourceGraphic" in2="effect1_dropShadow" result="shape"/>
</filter>
<filter id="filter1_d" x="1032" y="267" width="94" height="94" filterUnits="userSpaceOnUse" color-interpolation-filters="sRGB">
<feFlood flood-opacity="0" result="BackgroundImageFix"/>
<feColorMatrix in="SourceAlpha" type="matrix" values="0 0 0 0 0 0 0 0 0 0 0 0 0 0 0 0 0 0 127 0"/>
<feOffset/>
<feGaussianBlur stdDeviation="17.5"/>
<feColorMatrix type="matrix" values="0 0 0 0 0.289399 0 0 0 0 0.964817 0 0 0 0 0.803534 0 0 0 0.837777 0"/>
<feBlend mode="normal" in2="BackgroundImageFix" result="effect1_dropShadow"/>
<feBlend mode="normal" in="SourceGraphic" in2="effect1_dropShadow" result="shape"/>
</filter>
<filter id="filter2_d" x="811" y="360" width="94" height="94" filterUnits="userSpaceOnUse" color-interpolation-filters="sRGB">
<feFlood flood-opacity="0" result="BackgroundImageFix"/>
<feColorMatrix in="SourceAlpha" type="matrix" values="0 0 0 0 0 0 0 0 0 0 0 0 0 0 0 0 0 0 127 0"/>
<feOffset/>
<feGaussianBlur stdDeviation="17.5"/>
<feColorMatrix type="matrix" values="0 0 0 0 0.289399 0 0 0 0 0.964817 0 0 0 0 0.803534 0 0 0 0.837777 0"/>
<feBlend mode="normal" in2="BackgroundImageFix" result="effect1_dropShadow"/>
<feBlend mode="normal" in="SourceGraphic" in2="effect1_dropShadow" result="shape"/>
</filter>
<filter id="filter3_d" x="650" y="520" width="94" height="94" filterUnits="userSpaceOnUse" color-interpolation-filters="sRGB">
<feFlood flood-opacity="0" result="BackgroundImageFix"/>
<feColorMatrix in="SourceAlpha" type="matrix" values="0 0 0 0 0 0 0 0 0 0 0 0 0 0 0 0 0 0 127 0"/>
<feOffset/>
<feGaussianBlur stdDeviation="17.5"/>
<feColorMatrix type="matrix" values="0 0 0 0 0.289399 0 0 0 0 0.964817 0 0 0 0 0.803534 0 0 0 0.837777 0"/>
<feBlend mode="normal" in2="BackgroundImageFix" result="effect1_dropShadow"/>
<feBlend mode="normal" in="SourceGraphic" in2="effect1_dropShadow" result="shape"/>
</filter>
<filter id="filter4_d" x="543" y="177" width="94" height="94" filterUnits="userSpaceOnUse" color-interpolation-filters="sRGB">
<feFlood flood-opacity="0" result="BackgroundImageFix"/>
<feColorMatrix in="SourceAlpha" type="matrix" values="0 0 0 0 0 0 0 0 0 0 0 0 0 0 0 0 0 0 127 0"/>
<feOffset/>
<feGaussianBlur stdDeviation="17.5"/>
<feColorMatrix type="matrix" values="0 0 0 0 0.289399 0 0 0 0 0.964817 0 0 0 0 0.803534 0 0 0 0.837777 0"/>
<feBlend mode="normal" in2="BackgroundImageFix" result="effect1_dropShadow"/>
<feBlend mode="normal" in="SourceGraphic" in2="effect1_dropShadow" result="shape"/>
</filter>
<filter id="filter5_d" x="426" y="466" width="94" height="94" filterUnits="userSpaceOnUse" color-interpolation-filters="sRGB">
<feFlood flood-opacity="0" result="BackgroundImageFix"/>
<feColorMatrix in="SourceAlpha" type="matrix" values="0 0 0 0 0 0 0 0 0 0 0 0 0 0 0 0 0 0 127 0"/>
<feOffset/>
<feGaussianBlur stdDeviation="17.5"/>
<feColorMatrix type="matrix" values="0 0 0 0 0.289399 0 0 0 0 0.964817 0 0 0 0 0.803534 0 0 0 0.837777 0"/>
<feBlend mode="normal" in2="BackgroundImageFix" result="effect1_dropShadow"/>
<feBlend mode="normal" in="SourceGraphic" in2="effect1_dropShadow" result="shape"/>
</filter>
<filter id="filter6_d" x="351" y="283" width="94" height="94" filterUnits="userSpaceOnUse" color-interpolation-filters="sRGB">
<feFlood flood-opacity="0" result="BackgroundImageFix"/>
<feColorMatrix in="SourceAlpha" type="matrix" values="0 0 0 0 0 0 0 0 0 0 0 0 0 0 0 0 0 0 127 0"/>
<feOffset/>
<feGaussianBlur stdDeviation="17.5"/>
<feColorMatrix type="matrix" values="0 0 0 0 0.289399 0 0 0 0 0.964817 0 0 0 0 0.803534 0 0 0 0.837777 0"/>
<feBlend mode="normal" in2="BackgroundImageFix" result="effect1_dropShadow"/>
<feBlend mode="normal" in="SourceGraphic" in2="effect1_dropShadow" result="shape"/>
</filter>
<filter id="filter7_d" x="149" y="255" width="94" height="94" filterUnits="userSpaceOnUse" color-interpolation-filters="sRGB">
<feFlood flood-opacity="0" result="BackgroundImageFix"/>
<feColorMatrix in="SourceAlpha" type="matrix" values="0 0 0 0 0 0 0 0 0 0 0 0 0 0 0 0 0 0 127 0"/>
<feOffset/>
<feGaussianBlur stdDeviation="17.5"/>
<feColorMatrix type="matrix" values="0 0 0 0 0.289399 0 0 0 0 0.964817 0 0 0 0 0.803534 0 0 0 0.837777 0"/>
<feBlend mode="normal" in2="BackgroundImageFix" result="effect1_dropShadow"/>
<feBlend mode="normal" in="SourceGraphic" in2="effect1_dropShadow" result="shape"/>
</filter>
<filter id="filter8_d" x="0" y="295" width="94" height="94" filterUnits="userSpaceOnUse" color-interpolation-filters="sRGB">
<feFlood flood-opacity="0" result="BackgroundImageFix"/>
<feColorMatrix in="SourceAlpha" type="matrix" values="0 0 0 0 0 0 0 0 0 0 0 0 0 0 0 0 0 0 127 0"/>
<feOffset/>
<feGaussianBlur stdDeviation="17.5"/>
<feColorMatrix type="matrix" values="0 0 0 0 0.289399 0 0 0 0 0.964817 0 0 0 0 0.803534 0 0 0 0.837777 0"/>
<feBlend mode="normal" in2="BackgroundImageFix" result="effect1_dropShadow"/>
<feBlend mode="normal" in="SourceGraphic" in2="effect1_dropShadow" result="shape"/>
</filter>
</defs>
</svg>
